<svg width="17" height="17" viewBox="0 0 17 17" fill="none" xmlns="http://www.w3.org/2000/svg">
<path d="M14.5612 9.79881V10.2318H13.6953V9.79881C13.6953 9.60572 13.6563 9.42345 13.5979 9.24984C14.1922 9.06635 14.701 8.67568 15.0317 8.14886C15.3624 7.62203 15.4931 6.99403 15.4 6.37901C15.3069 5.76399 14.9962 5.2028 14.5244 4.79744C14.0526 4.39209 13.451 4.1695 12.829 4.17013C12.1627 4.16975 11.522 4.42658 11.0405 4.88708C10.895 4.14875 10.4801 3.49094 9.87642 3.04165C9.27273 2.59237 8.52349 2.38375 7.77448 2.45639C7.02547 2.52903 6.33028 2.87774 5.82419 3.43466C5.31809 3.99158 5.03729 4.71687 5.03644 5.46939C5.03654 5.99309 5.1726 6.5078 5.43131 6.96314C5.69002 7.41848 6.06251 7.79886 6.51234 8.06704H6.33527C5.87597 8.06704 5.43549 8.2495 5.11072 8.57427C4.78595 8.89904 4.60349 9.33952 4.60349 9.79881H4.17055L1.5729 8.06704H1.13995V14.1282H1.5729L4.17055 12.3965H4.60349V13.2624C4.60349 13.7217 4.78595 14.1621 5.11072 14.4869C5.43549 14.8117 5.87597 14.9941 6.33527 14.9941H11.9635C12.4228 14.9941 12.8633 14.8117 13.1881 14.4869C13.5128 14.1621 13.6953 13.7217 13.6953 13.2624V11.9635H14.5612V12.3965H15.86V9.79881H14.5612Z" fill="#4F5862"/>
<path d="M10.2318 5.46941C10.2317 6.04358 10.0036 6.59422 9.59753 7.00018C9.39648 7.20119 9.1578 7.36064 8.89513 7.46941C8.63246 7.57818 8.35093 7.63415 8.06663 7.63412C7.78233 7.63409 7.50081 7.57807 7.23816 7.46924C6.97551 7.36042 6.73687 7.20093 6.53586 6.99987C6.12989 6.59383 5.90186 6.04315 5.90192 5.46897C5.90197 4.8948 6.13012 4.34416 6.53616 3.9382C6.94221 3.53224 7.49289 3.3042 8.06706 3.30426C8.64124 3.30432 9.19187 3.53246 9.59784 3.93851C10.0038 4.34455 10.2318 4.89523 10.2318 5.46941Z" fill="#798A95"/>
<path d="M8.06706 6.33529C8.54527 6.33529 8.93294 5.94762 8.93294 5.4694C8.93294 4.99119 8.54527 4.60352 8.06706 4.60352C7.58884 4.60352 7.20117 4.99119 7.20117 5.4694C7.20117 5.94762 7.58884 6.33529 8.06706 6.33529Z" fill="#D7E1E8"/>
<path d="M12.829 8.50001C13.7854 8.50001 14.5608 7.72467 14.5608 6.76824C14.5608 5.81181 13.7854 5.03647 12.829 5.03647C11.8726 5.03647 11.0972 5.81181 11.0972 6.76824C11.0972 7.72467 11.8726 8.50001 12.829 8.50001Z" fill="#798A95"/>
<path d="M12.829 7.63411C13.3072 7.63411 13.6949 7.24644 13.6949 6.76823C13.6949 6.29001 13.3072 5.90234 12.829 5.90234C12.3508 5.90234 11.9631 6.29001 11.9631 6.76823C11.9631 7.24644 12.3508 7.63411 12.829 7.63411Z" fill="#D7E1E8"/>
<path d="M8.06708 9.36588H12.3965V13.6953H8.06708V9.36588Z" fill="#9CADBA"/>
<path d="M8.93292 10.2318H11.5306V12.8294H8.93292V10.2318Z" fill="#4F5862"/>
<path d="M6.33488 13.6953C6.81309 13.6953 7.20076 13.3076 7.20076 12.8294C7.20076 12.3512 6.81309 11.9635 6.33488 11.9635C5.85666 11.9635 5.46899 12.3512 5.46899 12.8294C5.46899 13.3076 5.85666 13.6953 6.33488 13.6953Z" fill="#9CADBA"/>
</svg>
