<svg xmlns="http://www.w3.org/2000/svg" width="18" height="18" fill="none" viewBox="0 0 18 18"><path fill="#4F5862" d="M15.3802 10.3672V10.8229H14.4688V10.3672C14.4688 10.1639 14.4278 9.97207 14.3662 9.78932C14.9919 9.59617 15.5274 9.18494 15.8755 8.63039C16.2236 8.07584 16.3612 7.41478 16.2632 6.76739C16.1652 6.12 15.8382 5.52927 15.3415 5.10259C14.8449 4.6759 14.2116 4.44159 13.5569 4.44225C12.8555 4.44185 12.1811 4.71221 11.6742 5.19694C11.5211 4.41975 11.0844 3.72731 10.4489 3.25438C9.81345 2.78145 9.02477 2.56185 8.23634 2.63832C7.44791 2.71479 6.71613 3.08185 6.1834 3.66808C5.65066 4.2543 5.35509 5.01777 5.35419 5.80989C5.35429 6.36116 5.49752 6.90296 5.76984 7.38227C6.04217 7.86157 6.43427 8.26197 6.90777 8.54427H6.72137C6.23791 8.54427 5.77424 8.73633 5.43238 9.07819C5.09051 9.42005 4.89846 9.88372 4.89846 10.3672H4.44273L1.70835 8.54427H1.25262V14.9245H1.70835L4.44273 13.1016H4.89846V14.013C4.89846 14.4965 5.09051 14.9602 5.43238 15.302C5.77424 15.6439 6.23791 15.8359 6.72137 15.8359H12.6459C13.1293 15.8359 13.593 15.6439 13.9348 15.302C14.2767 14.9602 14.4688 14.4965 14.4688 14.013V12.6458H15.3802V13.1016H16.7474V10.3672H15.3802Z"/><path fill="#798A95" d="M10.8229 5.80989C10.8228 6.41429 10.5827 6.99391 10.1553 7.42123C9.94362 7.63283 9.69238 7.80066 9.41589 7.91516C9.13939 8.02965 8.84305 8.08857 8.54378 8.08854C8.24452 8.08851 7.94819 8.02954 7.67171 7.91498C7.39524 7.80043 7.14403 7.63255 6.93244 7.42091C6.50511 6.9935 6.26508 6.41383 6.26514 5.80944C6.2652 5.20504 6.50535 4.62543 6.93276 4.1981C7.36018 3.77077 7.93984 3.53073 8.54424 3.53079C9.14863 3.53085 9.72825 3.77101 10.1556 4.19842C10.5829 4.62583 10.8229 5.2055 10.8229 5.80989Z"/><path fill="#D7E1E8" d="M8.54427 6.72135C9.04766 6.72135 9.45573 6.31328 9.45573 5.8099C9.45573 5.30651 9.04766 4.89844 8.54427 4.89844C8.04089 4.89844 7.63281 5.30651 7.63281 5.8099C7.63281 6.31328 8.04089 6.72135 8.54427 6.72135Z"/><path fill="#798A95" d="M13.5569 8.99999C14.5636 8.99999 15.3798 8.18384 15.3798 7.17707C15.3798 6.1703 14.5636 5.35416 13.5569 5.35416C12.5501 5.35416 11.7339 6.1703 11.7339 7.17707C11.7339 8.18384 12.5501 8.99999 13.5569 8.99999Z"/><path fill="#D7E1E8" d="M13.5568 8.08854C14.0602 8.08854 14.4683 7.68047 14.4683 7.17708C14.4683 6.6737 14.0602 6.26562 13.5568 6.26562C13.0535 6.26562 12.6454 6.6737 12.6454 7.17708C12.6454 7.68047 13.0535 8.08854 13.5568 8.08854Z"/><path fill="#9CADBA" d="M8.54425 9.91147H13.1015V14.4688H8.54425V9.91147Z"/><path fill="#4F5862" d="M9.45575 10.8229H12.1901V13.5573H9.45575V10.8229Z"/><path fill="#9CADBA" d="M6.72091 14.4688C7.22429 14.4688 7.63236 14.0607 7.63236 13.5573C7.63236 13.0539 7.22429 12.6458 6.72091 12.6458C6.21752 12.6458 5.80945 13.0539 5.80945 13.5573C5.80945 14.0607 6.21752 14.4688 6.72091 14.4688Z"/></svg>