<svg width="17" height="17" viewBox="0 0 17 17" fill="none" xmlns="http://www.w3.org/2000/svg">
<path d="M15.4591 8.50001L13.3671 9.79884H12.8294V8.06707C12.8294 8.02897 12.8207 7.9939 12.8181 7.95624C14.317 7.57525 15.4271 6.22057 15.4271 4.60353C15.4271 3.68488 15.0621 2.80386 14.4126 2.15428C13.763 1.5047 12.8819 1.13977 11.9633 1.13977C11.0447 1.13977 10.1636 1.5047 9.51406 2.15428C8.86448 2.80386 8.49955 3.68488 8.49955 4.60353C8.49955 5.23692 8.67792 5.82529 8.97535 6.3353H7.16652C7.18686 6.19329 7.20115 6.04956 7.20115 5.90236C7.20115 5.09859 6.88186 4.32775 6.31351 3.7594C5.74516 3.19105 4.97432 2.87176 4.17055 2.87176C3.36679 2.87176 2.59594 3.19105 2.0276 3.7594C1.45925 4.32775 1.13995 5.09859 1.13995 5.90236C1.14031 6.47536 1.30323 7.0365 1.60977 7.5206C1.91631 8.00471 2.3539 8.39192 2.87172 8.63726V13.2624C2.87172 13.7217 3.05418 14.1622 3.37895 14.4869C3.70372 14.8117 4.1442 14.9942 4.60349 14.9942H11.0976C11.5569 14.9942 11.9974 14.8117 12.3222 14.4869C12.647 14.1622 12.8294 13.7217 12.8294 13.2624V11.9636H13.3671L15.4591 13.2624H15.86V8.50001H15.4591ZM13.1442 2.42886C13.5313 2.63933 13.8552 2.9494 14.0823 3.32701C14.3094 3.70462 14.4316 4.13605 14.4361 4.57669L12.9073 4.32212C12.8607 4.16125 12.7738 4.01493 12.6549 3.89697L13.1442 2.42886ZM12.7545 5.17458L14.2923 5.43088C14.1497 5.82971 13.907 6.18523 13.5875 6.46337C13.2681 6.74151 12.8826 6.93295 12.4679 7.01935C12.3077 6.80978 12.1015 6.63975 11.8652 6.52233L12.1358 5.57419C12.3835 5.52006 12.6033 5.37812 12.7545 5.17458ZM11.9635 2.12926C12.0856 2.12926 12.2047 2.14095 12.322 2.15827L11.8323 3.62681C11.6574 3.65019 11.4981 3.71773 11.3643 3.8199L9.98064 3.12806C10.2102 2.81832 10.5092 2.56665 10.8535 2.39321C11.1978 2.21977 11.578 2.12937 11.9635 2.12926ZM9.48925 4.60353C9.48925 4.35978 9.52605 4.12469 9.59143 3.90216L10.9742 4.59357L10.9734 4.60353C10.9734 4.88797 11.1089 5.14254 11.3072 5.32308L11.018 6.3353H10.2079C9.74847 5.87601 9.49 5.25319 9.48925 4.60353ZM5.55467 4.43685C5.75535 4.6246 5.91538 4.85153 6.02485 5.10361C6.13432 5.35568 6.1909 5.62754 6.1911 5.90236C6.1911 6.05129 6.17248 6.19546 6.14217 6.3353H5.07973C5.14251 6.20368 5.18061 6.05778 5.18061 5.90236C5.18074 5.7032 5.12167 5.5085 5.01089 5.34299L5.55467 4.43685ZM4.17055 3.88181C4.39525 3.88181 4.60782 3.92727 4.80958 3.99481L4.2658 4.90139C4.23419 4.89836 4.20302 4.89187 4.17055 4.89187C3.9714 4.89173 3.7767 4.95081 3.61119 5.06158L2.70504 4.51824C2.89279 4.31756 3.11973 4.15753 3.3718 4.04806C3.62388 3.93859 3.89573 3.88201 4.17055 3.88181ZM2.15001 5.90236C2.15001 5.67766 2.19547 5.46508 2.26301 5.2629L3.17002 5.80711C3.16699 5.83871 3.1605 5.86945 3.1605 5.90236C3.1605 6.22706 3.31636 6.51281 3.55447 6.69767C3.28193 6.90677 3.07798 7.19243 2.9687 7.5181C2.47472 7.14966 2.15001 6.56606 2.15001 5.90236Z" fill="#6A7580"/>
<path d="M11.0976 9.79882C11.5759 9.79882 11.9635 9.41115 11.9635 8.93293C11.9635 8.45472 11.5759 8.06705 11.0976 8.06705C10.6194 8.06705 10.2318 8.45472 10.2318 8.93293C10.2318 9.41115 10.6194 9.79882 11.0976 9.79882Z" fill="#B5CBDB"/>
<path d="M4.6035 9.79882C5.08171 9.79882 5.46938 9.41115 5.46938 8.93293C5.46938 8.45472 5.08171 8.06705 4.6035 8.06705C4.12528 8.06705 3.73761 8.45472 3.73761 8.93293C3.73761 9.41115 4.12528 9.79882 4.6035 9.79882Z" fill="#B5CBDB"/>
<path d="M11.0977 12.3965C11.0977 12.1668 11.0064 11.9466 10.844 11.7842C10.6817 11.6218 10.4614 11.5306 10.2318 11.5306H5.4694C5.23975 11.5306 5.01951 11.6218 4.85713 11.7842C4.69474 11.9466 4.60352 12.1668 4.60352 12.3965V14.9942C4.60352 15.2238 4.69474 15.444 4.85713 15.6064C5.01951 15.7688 5.23975 15.86 5.4694 15.86H10.2318C10.4614 15.86 10.6817 15.7688 10.844 15.6064C11.0064 15.444 11.0977 15.2238 11.0977 14.9942V12.3965Z" fill="#B5CBDB"/>
</svg>
