<svg width="10" height="10" viewBox="0 0 10 10" fill="none" xmlns="http://www.w3.org/2000/svg">
<g clip-path="url(#clip0_503_224)">
<path d="M8.40278 5.72919V5.97225H7.91667V5.72919C7.91667 5.62079 7.89479 5.51847 7.86198 5.421C8.19565 5.31799 8.48127 5.09867 8.66693 4.8029C8.85259 4.50714 8.92596 4.15458 8.8737 3.8093C8.82143 3.46403 8.64701 3.14897 8.38213 2.92141C8.11726 2.69384 7.77952 2.56888 7.43031 2.56923C7.05627 2.56902 6.69658 2.7132 6.42625 2.97173C6.3446 2.55723 6.11165 2.18793 5.77274 1.9357C5.43383 1.68347 5.0132 1.56635 4.5927 1.60713C4.17221 1.64791 3.78193 1.84368 3.4978 2.15634C3.21368 2.46899 3.05604 2.87617 3.05556 3.29864C3.05561 3.59265 3.132 3.88161 3.27724 4.13724C3.42248 4.39287 3.6316 4.60641 3.88413 4.75697H3.78472C3.52687 4.75697 3.27959 4.8594 3.09726 5.04173C2.91493 5.22406 2.8125 5.47135 2.8125 5.72919H2.56945L1.11111 4.75697H0.868057V8.15975H1.11111L2.56945 7.18753H2.8125V7.67364C2.8125 7.93149 2.91493 8.17878 3.09726 8.3611C3.27959 8.54343 3.52687 8.64586 3.78472 8.64586H6.94445C7.2023 8.64586 7.44958 8.54343 7.63191 8.3611C7.81424 8.17878 7.91667 7.93149 7.91667 7.67364V6.94447H8.40278V7.18753H9.13195V5.72919H8.40278Z" fill="#4F5862"/>
<path d="M5.97223 3.29859C5.97219 3.62093 5.84411 3.93006 5.61616 4.15797C5.50329 4.27082 5.36929 4.36033 5.22183 4.4214C5.07436 4.48246 4.91631 4.51388 4.75671 4.51387C4.5971 4.51385 4.43905 4.4824 4.2916 4.4213C4.14415 4.36021 4.01017 4.27067 3.89732 4.1578C3.66942 3.92985 3.5414 3.62069 3.54143 3.29835C3.54146 2.976 3.66954 2.66687 3.8975 2.43897C4.12545 2.21106 4.4346 2.08304 4.75695 2.08307C5.07929 2.0831 5.38842 2.21118 5.61633 2.43914C5.84424 2.66709 5.97226 2.97625 5.97223 3.29859Z" fill="#798A95"/>
<path d="M4.75695 3.78472C5.02542 3.78472 5.24306 3.56708 5.24306 3.29861C5.24306 3.03014 5.02542 2.8125 4.75695 2.8125C4.48848 2.8125 4.27084 3.03014 4.27084 3.29861C4.27084 3.56708 4.48848 3.78472 4.75695 3.78472Z" fill="#D7E1E8"/>
<path d="M7.43031 4.99999C7.96726 4.99999 8.40254 4.56471 8.40254 4.02776C8.40254 3.49082 7.96726 3.05554 7.43031 3.05554C6.89337 3.05554 6.45809 3.49082 6.45809 4.02776C6.45809 4.56471 6.89337 4.99999 7.43031 4.99999Z" fill="#798A95"/>
<path d="M7.43031 4.51391C7.69878 4.51391 7.91642 4.29627 7.91642 4.0278C7.91642 3.75933 7.69878 3.54169 7.43031 3.54169C7.16184 3.54169 6.9442 3.75933 6.9442 4.0278C6.9442 4.29627 7.16184 4.51391 7.43031 4.51391Z" fill="#D7E1E8"/>
<path d="M4.75694 5.48608H7.1875V7.91664H4.75694V5.48608Z" fill="#9CADBA"/>
<path d="M5.24306 5.97223H6.70139V7.43056H5.24306V5.97223Z" fill="#4F5862"/>
<path d="M3.78448 7.91668C4.05295 7.91668 4.27059 7.69904 4.27059 7.43057C4.27059 7.1621 4.05295 6.94446 3.78448 6.94446C3.51601 6.94446 3.29837 7.1621 3.29837 7.43057C3.29837 7.69904 3.51601 7.91668 3.78448 7.91668Z" fill="#9CADBA"/>
</g>
<defs>
<clipPath id="clip0_503_224">
<rect width="8.75" height="8.75" fill="white" transform="translate(0.625 0.625)"/>
</clipPath>
</defs>
</svg>
