<svg xmlns="http://www.w3.org/2000/svg" width="36" height="36" fill="none" viewBox="0 0 36 36"><path fill="#4F5862" d="M31.6111 20.9167V21.8889H29.6667V20.9167C29.6667 20.483 29.5792 20.0737 29.4479 19.6839C30.7826 19.2718 31.9251 18.3945 32.6677 17.2115C33.4104 16.0284 33.7038 14.6182 33.4948 13.2371C33.2857 11.856 32.588 10.5958 31.5285 9.68551C30.469 8.77524 29.1181 8.27538 27.7212 8.27679C26.2251 8.27594 24.7863 8.8527 23.705 9.88679C23.3784 8.22878 22.4466 6.75159 21.0909 5.74267C19.7353 4.73375 18.0528 4.26528 16.3708 4.4284C14.6888 4.59153 13.1277 5.3746 11.9912 6.62522C10.8547 7.87584 10.2241 9.50456 10.2222 11.1944C10.2224 12.3705 10.528 13.5263 11.109 14.5488C11.6899 15.5713 12.5264 16.4255 13.5365 17.0278H13.1389C12.1075 17.0278 11.1183 17.4375 10.389 18.1668C9.65972 18.8961 9.25 19.8853 9.25 20.9167H8.27778L2.44444 17.0278H1.47222V30.6389H2.44444L8.27778 26.75H9.25V28.6944C9.25 29.7258 9.65972 30.715 10.389 31.4443C11.1183 32.1736 12.1075 32.5833 13.1389 32.5833H25.7778C26.8092 32.5833 27.7983 32.1736 28.5276 31.4443C29.2569 30.715 29.6667 29.7258 29.6667 28.6944V25.7778H31.6111V26.75H34.5278V20.9167H31.6111Z"/><path fill="#798A95" d="M21.8889 11.1945C21.8888 12.4839 21.3764 13.7204 20.4646 14.632C20.0131 15.0834 19.4772 15.4415 18.8873 15.6857C18.2974 15.93 17.6652 16.0557 17.0268 16.0556C16.3884 16.0555 15.7562 15.9297 15.1664 15.6853C14.5766 15.441 14.0407 15.0828 13.5893 14.6313C12.6776 13.7195 12.1656 12.4829 12.1657 11.1935C12.1658 9.90413 12.6782 8.66762 13.59 7.75598C14.5018 6.84435 15.7384 6.33227 17.0278 6.3324C18.3172 6.33253 19.5537 6.84485 20.4653 7.75667C21.3769 8.66849 21.889 9.90511 21.8889 11.1945Z"/><path fill="#D7E1E8" d="M17.0278 13.1389C18.1017 13.1389 18.9722 12.2683 18.9722 11.1944C18.9722 10.1206 18.1017 9.25 17.0278 9.25C15.9539 9.25 15.0833 10.1206 15.0833 11.1944C15.0833 12.2683 15.9539 13.1389 17.0278 13.1389Z"/><path fill="#798A95" d="M27.7212 18C29.869 18 31.6101 16.2589 31.6101 14.1111C31.6101 11.9633 29.869 10.2222 27.7212 10.2222C25.5735 10.2222 23.8324 11.9633 23.8324 14.1111C23.8324 16.2589 25.5735 18 27.7212 18Z"/><path fill="#D7E1E8" d="M27.7213 16.0556C28.7951 16.0556 29.6657 15.185 29.6657 14.1111C29.6657 13.0372 28.7951 12.1667 27.7213 12.1667C26.6474 12.1667 25.7768 13.0372 25.7768 14.1111C25.7768 15.185 26.6474 16.0556 27.7213 16.0556Z"/><path fill="#9CADBA" d="M17.0278 19.9445H26.75V29.6667H17.0278V19.9445Z"/><path fill="#4F5862" d="M18.9722 21.8889H24.8056V27.7222H18.9722V21.8889Z"/><path fill="#9CADBA" d="M13.1379 29.6667C14.2118 29.6667 15.0824 28.7961 15.0824 27.7222C15.0824 26.6483 14.2118 25.7778 13.1379 25.7778C12.064 25.7778 11.1935 26.6483 11.1935 27.7222C11.1935 28.7961 12.064 29.6667 13.1379 29.6667Z"/></svg>