<svg width="24" height="24" viewBox="0 0 24 24" fill="none" xmlns="http://www.w3.org/2000/svg">
<path d="M21.3337 13.9999V14.6666H20.0003V13.9999C20.0003 13.7026 19.9403 13.4219 19.8503 13.1546C20.7655 12.872 21.549 12.2705 22.0582 11.4592C22.5674 10.648 22.7687 9.68096 22.6253 8.73392C22.482 7.78689 22.0035 6.92273 21.277 6.29855C20.5505 5.67437 19.6241 5.33161 18.6663 5.33258C17.6404 5.33199 16.6538 5.72748 15.9123 6.43658C15.6884 5.29965 15.0494 4.28672 14.1198 3.59489C13.1903 2.90306 12.0365 2.58182 10.8832 2.69368C9.72981 2.80554 8.65932 3.3425 7.88001 4.20007C7.1007 5.05764 6.66831 6.17447 6.66699 7.33324C6.66715 8.13967 6.87666 8.93224 7.27504 9.6334C7.67341 10.3346 8.247 10.9203 8.93966 11.3332H8.66699C7.95975 11.3332 7.28147 11.6142 6.78137 12.1143C6.28128 12.6144 6.00033 13.2927 6.00033 13.9999H5.33366L1.33366 11.3332H0.666992V20.6666H1.33366L5.33366 17.9999H6.00033V19.3332C6.00033 20.0405 6.28128 20.7188 6.78137 21.2189C7.28147 21.719 7.95975 21.9999 8.66699 21.9999H17.3337C18.0409 21.9999 18.7192 21.719 19.2193 21.2189C19.7194 20.7188 20.0003 20.0405 20.0003 19.3332V17.3332H21.3337V17.9999H23.3337V13.9999H21.3337Z" fill="#4F5862"/>
<path d="M14.6664 7.334C14.6663 8.21814 14.315 9.06604 13.6897 9.69116C13.3801 10.0007 13.0126 10.2462 12.6081 10.4137C12.2036 10.5812 11.7701 10.6674 11.3324 10.6673C10.8946 10.6673 10.4611 10.581 10.0566 10.4134C9.6522 10.2459 9.28472 10.0003 8.9752 9.69069C8.35007 9.06544 7.99894 8.21748 7.99902 7.33333C7.99911 6.44919 8.35042 5.60129 8.97567 4.97617C9.60091 4.35105 10.4489 3.99991 11.333 4C12.2172 4.00009 13.0651 4.3514 13.6902 4.97664C14.3153 5.60189 14.6664 6.44986 14.6664 7.334Z" fill="#798A95"/>
<path d="M11.3333 8.66667C12.0697 8.66667 12.6667 8.06971 12.6667 7.33333C12.6667 6.59695 12.0697 6 11.3333 6C10.597 6 10 6.59695 10 7.33333C10 8.06971 10.597 8.66667 11.3333 8.66667Z" fill="#D7E1E8"/>
<path d="M18.6657 11.9993C20.1384 11.9993 21.3324 10.8054 21.3324 9.33268C21.3324 7.85992 20.1384 6.66602 18.6657 6.66602C17.1929 6.66602 15.999 7.85992 15.999 9.33268C15.999 10.8054 17.1929 11.9993 18.6657 11.9993Z" fill="#798A95"/>
<path d="M18.6663 10.6667C19.4027 10.6667 19.9997 10.0697 19.9997 9.33333C19.9997 8.59695 19.4027 8 18.6663 8C17.93 8 17.333 8.59695 17.333 9.33333C17.333 10.0697 17.93 10.6667 18.6663 10.6667Z" fill="#D7E1E8"/>
<path d="M11.333 13.334H17.9997V20.0007H11.333V13.334Z" fill="#9CADBA"/>
<path d="M12.667 14.666H16.667V18.666H12.667V14.666Z" fill="#4F5862"/>
<path d="M8.66634 20.0007C9.40272 20.0007 9.99967 19.4037 9.99967 18.6673C9.99967 17.9309 9.40272 17.334 8.66634 17.334C7.92996 17.334 7.33301 17.9309 7.33301 18.6673C7.33301 19.4037 7.92996 20.0007 8.66634 20.0007Z" fill="#9CADBA"/>
</svg>
