<svg width="40" height="40" viewBox="0 0 40 40" fill="none" xmlns="http://www.w3.org/2000/svg">
<path d="M37.0926 20L31.9544 23.1901H30.6337V18.9366C30.6337 18.843 30.6124 18.7569 30.606 18.6644C34.2874 17.7286 37.0139 14.4013 37.0139 10.4297C37.0139 8.17333 36.1176 6.00942 34.5221 4.41396C32.9266 2.8185 30.7627 1.92218 28.5064 1.92218C26.2501 1.92218 24.0862 2.8185 22.4907 4.41396C20.8952 6.00942 19.9989 8.17333 19.9989 10.4297C19.9989 11.9854 20.437 13.4305 21.1676 14.6831H16.7248C16.7748 14.3343 16.8099 13.9813 16.8099 13.6198C16.8099 11.6456 16.0257 9.7523 14.6297 8.35636C13.2338 6.96042 11.3405 6.17618 9.36631 6.17618C7.39215 6.17618 5.49884 6.96042 4.1029 8.35636C2.70696 9.7523 1.92273 11.6456 1.92273 13.6198C1.92361 15.0271 2.32375 16.4054 3.07666 17.5944C3.82957 18.7834 4.90436 19.7345 6.1762 20.3371V31.697C6.1762 32.8251 6.62433 33.907 7.42201 34.7047C8.2197 35.5024 9.30158 35.9505 10.4297 35.9505H26.3802C27.5083 35.9505 28.5902 35.5024 29.3879 34.7047C30.1855 33.907 30.6337 32.8251 30.6337 31.697V28.5069H31.9544L37.0926 31.697H38.0772V20H37.0926ZM31.4067 5.08836C32.3576 5.6053 33.1531 6.36689 33.711 7.29435C34.2688 8.22182 34.5688 9.28147 34.5798 10.3637L30.8251 9.73847C30.7105 9.34336 30.4972 8.98397 30.2051 8.69424L31.4067 5.08836ZM30.4497 11.8322L34.2268 12.4618C33.8764 13.4413 33.2804 14.3145 32.4958 14.9977C31.7112 15.6808 30.7642 16.151 29.7458 16.3633C29.3522 15.8485 28.8458 15.4309 28.2655 15.1425L28.9302 12.8137C29.5386 12.6808 30.0783 12.3322 30.4497 11.8322ZM28.5069 4.35251C28.8068 4.35251 29.0992 4.38122 29.3874 4.42375L28.1847 8.0307C27.7551 8.08812 27.3638 8.25401 27.0352 8.50496L23.6367 6.8057C24.2006 6.04494 24.9348 5.42681 25.7805 5.00081C26.6262 4.57481 27.56 4.35278 28.5069 4.35251ZM22.4298 10.4297C22.4298 9.83098 22.5202 9.25357 22.6807 8.707L26.0771 10.4052L26.075 10.4297C26.075 11.1283 26.4078 11.7535 26.8949 12.197L26.1845 14.6831H24.195C23.0665 13.555 22.4316 12.0253 22.4298 10.4297ZM12.7659 10.0203C13.2588 10.4814 13.6518 11.0388 13.9207 11.6579C14.1896 12.2771 14.3286 12.9448 14.329 13.6198C14.329 13.9856 14.2833 14.3397 14.2089 14.6831H11.5994C11.7536 14.3599 11.8471 14.0015 11.8471 13.6198C11.8475 13.1306 11.7024 12.6524 11.4303 12.2459L12.7659 10.0203ZM9.36631 8.65702C9.91819 8.65702 10.4403 8.76868 10.9358 8.93456L9.60025 11.1613C9.52262 11.1538 9.44606 11.1379 9.36631 11.1379C8.87715 11.1375 8.39894 11.2826 7.99243 11.5547L5.7668 10.2202C6.22795 9.72727 6.78533 9.33422 7.40447 9.06535C8.0236 8.79648 8.69131 8.65751 9.36631 8.65702ZM4.40357 13.6198C4.40357 13.0679 4.51522 12.5458 4.68111 12.0492L6.90886 13.3858C6.90142 13.4634 6.88547 13.5389 6.88547 13.6198C6.88547 14.4173 7.26828 15.1191 7.85313 15.5732C7.18373 16.0867 6.68278 16.7884 6.4144 17.5883C5.20109 16.6833 4.40357 15.2499 4.40357 13.6198Z" fill="#6A7580"/>
<path d="M26.3802 23.1901C27.5548 23.1901 28.507 22.2379 28.507 21.0634C28.507 19.8888 27.5548 18.9366 26.3802 18.9366C25.2057 18.9366 24.2535 19.8888 24.2535 21.0634C24.2535 22.2379 25.2057 23.1901 26.3802 23.1901Z" fill="#B5CBDB"/>
<path d="M10.4297 23.1901C11.6042 23.1901 12.5564 22.2379 12.5564 21.0634C12.5564 19.8888 11.6042 18.9366 10.4297 18.9366C9.25512 18.9366 8.30295 19.8888 8.30295 21.0634C8.30295 22.2379 9.25512 23.1901 10.4297 23.1901Z" fill="#B5CBDB"/>
<path d="M26.3802 29.5703C26.3802 29.0063 26.1561 28.4654 25.7573 28.0665C25.3585 27.6677 24.8175 27.4436 24.2535 27.4436H12.5564C11.9924 27.4436 11.4514 27.6677 11.0526 28.0665C10.6538 28.4654 10.4297 29.0063 10.4297 29.5703V35.9505C10.4297 36.5146 10.6538 37.0555 11.0526 37.4544C11.4514 37.8532 11.9924 38.0773 12.5564 38.0773H24.2535C24.8175 38.0773 25.3585 37.8532 25.7573 37.4544C26.1561 37.0555 26.3802 36.5146 26.3802 35.9505V29.5703Z" fill="#B5CBDB"/>
</svg>
