<svg xmlns="http://www.w3.org/2000/svg" width="28" height="28" fill="none" viewBox="0 0 28 28"><path fill="#4F5862" d="M24.2083 16.1875V16.9167H22.75V16.1875C22.75 15.8623 22.6844 15.5553 22.5859 15.2629C23.5869 14.9539 24.4438 14.2959 25.0008 13.4086C25.5578 12.5214 25.7779 11.4637 25.6211 10.4278C25.4643 9.39203 24.941 8.44686 24.1464 7.76416C23.3518 7.08146 22.3386 6.70657 21.2909 6.70763C20.1688 6.70698 19.0897 7.13955 18.2787 7.91513C18.0338 6.67162 17.3349 5.56373 16.3182 4.80704C15.3015 4.05035 14.0396 3.69899 12.7781 3.82133C11.5166 3.94368 10.3458 4.53098 9.4934 5.46895C8.64103 6.40691 8.16811 7.62845 8.16667 8.89586C8.16683 9.77788 8.39599 10.6448 8.83171 11.4117C9.26744 12.1785 9.89479 12.8192 10.6524 13.2709H10.3542C9.58062 13.2709 8.83875 13.5781 8.29177 14.1251C7.74479 14.6721 7.4375 15.414 7.4375 16.1875H6.70833L2.33333 13.2709H1.60417V23.4792H2.33333L6.70833 20.5625H7.4375V22.0209C7.4375 22.7944 7.74479 23.5363 8.29177 24.0833C8.83875 24.6302 9.58062 24.9375 10.3542 24.9375H19.8333C20.6069 24.9375 21.3487 24.6302 21.8957 24.0833C22.4427 23.5363 22.75 22.7944 22.75 22.0209V19.8334H24.2083V20.5625H26.3958V16.1875H24.2083Z"/><path fill="#798A95" d="M16.9167 8.89583C16.9166 9.86286 16.5323 10.7902 15.8485 11.474C15.5098 11.8125 15.1079 12.0811 14.6655 12.2643C14.2231 12.4474 13.7489 12.5417 13.2701 12.5417C12.7913 12.5416 12.3172 12.4473 11.8748 12.264C11.4324 12.0807 11.0305 11.8121 10.692 11.4735C10.0082 10.7896 9.62417 9.86213 9.62427 8.8951C9.62437 7.92807 10.0086 7.00068 10.6925 6.31696C11.3763 5.63323 12.3038 5.24917 13.2708 5.24927C14.2379 5.24936 15.1653 5.63361 15.849 6.31747C16.5327 7.00133 16.9168 7.9288 16.9167 8.89583Z"/><path fill="#D7E1E8" d="M13.2708 10.3542C14.0762 10.3542 14.7292 9.70125 14.7292 8.89583C14.7292 8.09042 14.0762 7.4375 13.2708 7.4375C12.4654 7.4375 11.8125 8.09042 11.8125 8.89583C11.8125 9.70125 12.4654 10.3542 13.2708 10.3542Z"/><path fill="#798A95" d="M21.2909 14C22.9018 14 24.2076 12.6942 24.2076 11.0834C24.2076 9.47252 22.9018 8.16669 21.2909 8.16669C19.6801 8.16669 18.3743 9.47252 18.3743 11.0834C18.3743 12.6942 19.6801 14 21.2909 14Z"/><path fill="#D7E1E8" d="M21.2909 12.5417C22.0964 12.5417 22.7493 11.8887 22.7493 11.0833C22.7493 10.2779 22.0964 9.625 21.2909 9.625C20.4855 9.625 19.8326 10.2779 19.8326 11.0833C19.8326 11.8887 20.4855 12.5417 21.2909 12.5417Z"/><path fill="#9CADBA" d="M13.2708 15.4583H20.5625V22.75H13.2708V15.4583Z"/><path fill="#4F5862" d="M14.7292 16.9167H19.1042V21.2917H14.7292V16.9167Z"/><path fill="#9CADBA" d="M10.3534 22.75C11.1589 22.75 11.8118 22.0971 11.8118 21.2916C11.8118 20.4862 11.1589 19.8333 10.3534 19.8333C9.54802 19.8333 8.89511 20.4862 8.89511 21.2916C8.89511 22.0971 9.54802 22.75 10.3534 22.75Z"/></svg>