<svg width="54" height="54" viewBox="0 0 54 54" fill="none" xmlns="http://www.w3.org/2000/svg">
<path d="M47.842 31.4661V32.9548H44.8646V31.4661C44.8646 30.8022 44.7306 30.1754 44.5296 29.5784C46.5733 28.9475 48.3228 27.6041 49.4599 25.7926C50.5971 23.981 51.0465 21.8216 50.7264 19.7068C50.4063 17.592 49.3379 15.6623 47.7156 14.2684C46.0932 12.8746 44.0245 12.1092 41.8857 12.1113C39.5946 12.11 37.3915 12.9932 35.7358 14.5767C35.2356 12.0378 33.8088 9.77587 31.733 8.23097C29.6572 6.68606 27.0808 5.9687 24.5053 6.21849C21.9298 6.46828 19.5393 7.66735 17.799 9.58237C16.0588 11.4974 15.0932 13.9914 15.0903 16.579C15.0906 18.3798 15.5585 20.1497 16.4481 21.7154C17.3377 23.2811 18.6185 24.5891 20.1653 25.5113H19.5564C17.9771 25.5113 16.4624 26.1387 15.3457 27.2554C14.2289 28.3722 13.6016 29.8868 13.6016 31.4661H12.1128L3.18055 25.5113H1.69183V46.3533H3.18055L12.1128 40.3984H13.6016V43.3758C13.6016 44.9552 14.2289 46.4698 15.3457 47.5866C16.4624 48.7033 17.9771 49.3307 19.5564 49.3307H38.9097C40.489 49.3307 42.0037 48.7033 43.1204 47.5866C44.2372 46.4698 44.8646 44.9552 44.8646 43.3758V38.9097H47.842V40.3984H52.3081V31.4661H47.842Z" fill="#4F5862"/>
<path d="M32.9549 16.579C32.9547 18.5533 32.1702 20.4467 30.7739 21.8427C30.0826 22.5339 29.2619 23.0822 28.3587 23.4562C27.4555 23.8302 26.4874 24.0227 25.5098 24.0226C24.5322 24.0225 23.5642 23.8298 22.661 23.4556C21.7579 23.0814 20.9373 22.533 20.2461 21.8416C18.8501 20.4454 18.066 18.5518 18.0662 16.5775C18.0664 14.6031 18.8509 12.7097 20.2471 11.3138C21.6434 9.91783 23.5369 9.13371 25.5113 9.13391C27.4856 9.13411 29.3791 9.91861 30.775 11.3148C32.1709 12.711 32.9551 14.6046 32.9549 16.579Z" fill="#798A95"/>
<path d="M25.5113 19.5564C27.1557 19.5564 28.4887 18.2234 28.4887 16.579C28.4887 14.9346 27.1557 13.6016 25.5113 13.6016C23.8669 13.6016 22.5338 14.9346 22.5338 16.579C22.5338 18.2234 23.8669 19.5564 25.5113 19.5564Z" fill="#D7E1E8"/>
<path d="M41.8856 27C45.1744 27 47.8405 24.3339 47.8405 21.0451C47.8405 17.7564 45.1744 15.0903 41.8856 15.0903C38.5969 15.0903 35.9308 17.7564 35.9308 21.0451C35.9308 24.3339 38.5969 27 41.8856 27Z" fill="#798A95"/>
<path d="M41.8857 24.0225C43.5301 24.0225 44.8631 22.6895 44.8631 21.0451C44.8631 19.4007 43.5301 18.0677 41.8857 18.0677C40.2413 18.0677 38.9082 19.4007 38.9082 21.0451C38.9082 22.6895 40.2413 24.0225 41.8857 24.0225Z" fill="#D7E1E8"/>
<path d="M25.5113 29.9774H40.3984V44.8646H25.5113V29.9774Z" fill="#9CADBA"/>
<path d="M28.4887 32.9548H37.421V41.8871H28.4887V32.9548Z" fill="#4F5862"/>
<path d="M19.5549 44.8646C21.1993 44.8646 22.5324 43.5315 22.5324 41.8872C22.5324 40.2428 21.1993 38.9097 19.5549 38.9097C17.9106 38.9097 16.5775 40.2428 16.5775 41.8872C16.5775 43.5315 17.9106 44.8646 19.5549 44.8646Z" fill="#9CADBA"/>
</svg>
