<svg width="28" height="28" viewBox="0 0 28 28" fill="none" xmlns="http://www.w3.org/2000/svg">
<path d="M25.7206 14L22.1973 16.1875H21.2917V13.2709C21.2917 13.2067 21.2771 13.1476 21.2727 13.0842C23.7971 12.4425 25.6667 10.161 25.6667 7.43752C25.6667 5.89033 25.052 4.4065 23.958 3.31247C22.864 2.21844 21.3802 1.60382 19.833 1.60382C18.2858 1.60382 16.8019 2.21844 15.7079 3.31247C14.6139 4.4065 13.9993 5.89033 13.9993 7.43752C13.9993 8.50429 14.2997 9.49523 14.8006 10.3542H11.7542C11.7884 10.115 11.8125 9.87293 11.8125 9.62502C11.8125 8.27131 11.2747 6.97304 10.3175 6.01583C9.36031 5.05861 8.06204 4.52085 6.70833 4.52085C5.35462 4.52085 4.05636 5.05861 3.09914 6.01583C2.14192 6.97304 1.60417 8.27131 1.60417 9.62502C1.60477 10.5901 1.87915 11.5351 2.39543 12.3505C2.91171 13.1658 3.64871 13.818 4.52083 14.2312V22.0209C4.52083 22.7944 4.82812 23.5363 5.3751 24.0832C5.92208 24.6302 6.66395 24.9375 7.4375 24.9375H18.375C19.1485 24.9375 19.8904 24.6302 20.4374 24.0832C20.9844 23.5363 21.2917 22.7944 21.2917 22.0209V19.8334H22.1973L25.7206 22.0209H26.3958V14H25.7206ZM21.8218 3.77491C22.4738 4.12939 23.0193 4.65162 23.4018 5.2876C23.7844 5.92357 23.99 6.65019 23.9976 7.39231L21.4229 6.96356C21.3444 6.69263 21.1981 6.44619 20.9978 6.24752L21.8218 3.77491ZM21.1655 8.39929L23.7555 8.83096C23.5153 9.50267 23.1066 10.1014 22.5685 10.5699C22.0305 11.0383 21.3812 11.3608 20.6828 11.5063C20.4129 11.1533 20.0657 10.8669 19.6678 10.6692L20.1235 9.07231C20.5407 8.98115 20.9109 8.74209 21.1655 8.39929ZM19.8333 3.27033C20.039 3.27033 20.2395 3.29002 20.4371 3.31919L19.6124 5.79252C19.3178 5.83189 19.0495 5.94564 18.8242 6.11773L16.4937 4.95252C16.8804 4.43086 17.3839 4.00699 17.9638 3.71488C18.5437 3.42276 19.184 3.27052 19.8333 3.27033ZM15.6661 7.43752C15.6661 7.027 15.7281 6.63106 15.8382 6.25627L18.1672 7.42075L18.1657 7.43752C18.1657 7.91658 18.394 8.34533 18.7279 8.64939L18.2408 10.3542H16.8766C16.1027 9.58064 15.6674 8.53168 15.6661 7.43752ZM9.03948 7.15679C9.37747 7.47301 9.64699 7.85521 9.83136 8.27976C10.0157 8.7043 10.111 9.16217 10.1114 9.62502C10.1114 9.87585 10.08 10.1187 10.029 10.3542H8.23958C8.34531 10.1325 8.40948 9.88679 8.40948 9.62502C8.4097 9.2896 8.31021 8.96168 8.12364 8.68293L9.03948 7.15679ZM6.70833 6.222C7.08677 6.222 7.44479 6.29856 7.78458 6.41231L6.86875 7.93918C6.81552 7.93408 6.76302 7.92314 6.70833 7.92314C6.37291 7.92292 6.04499 8.02241 5.76625 8.20898L4.2401 7.29387C4.55632 6.95588 4.93852 6.68636 5.36307 6.50199C5.78762 6.31763 6.24548 6.22233 6.70833 6.222ZM3.30531 9.62502C3.30531 9.24658 3.38187 8.88856 3.49562 8.54804L5.02323 9.4646C5.01812 9.51783 5.00719 9.5696 5.00719 9.62502C5.00719 10.1719 5.26969 10.6531 5.67073 10.9645C5.21171 11.3167 4.8682 11.7978 4.68417 12.3463C3.85219 11.7257 3.30531 10.7428 3.30531 9.62502Z" fill="#6A7580"/>
<path d="M18.375 16.1875C19.1804 16.1875 19.8333 15.5346 19.8333 14.7291C19.8333 13.9237 19.1804 13.2708 18.375 13.2708C17.5696 13.2708 16.9167 13.9237 16.9167 14.7291C16.9167 15.5346 17.5696 16.1875 18.375 16.1875Z" fill="#B5CBDB"/>
<path d="M7.4375 16.1875C8.24292 16.1875 8.89583 15.5346 8.89583 14.7291C8.89583 13.9237 8.24292 13.2708 7.4375 13.2708C6.63209 13.2708 5.97917 13.9237 5.97917 14.7291C5.97917 15.5346 6.63209 16.1875 7.4375 16.1875Z" fill="#B5CBDB"/>
<path d="M18.375 20.5625C18.375 20.1757 18.2214 19.8048 17.9479 19.5313C17.6744 19.2578 17.3034 19.1042 16.9167 19.1042H8.89583C8.50906 19.1042 8.13813 19.2578 7.86464 19.5313C7.59115 19.8048 7.4375 20.1757 7.4375 20.5625V24.9375C7.4375 25.3243 7.59115 25.6952 7.86464 25.9687C8.13813 26.2422 8.50906 26.3959 8.89583 26.3959H16.9167C17.3034 26.3959 17.6744 26.2422 17.9479 25.9687C18.2214 25.6952 18.375 25.3243 18.375 24.9375V20.5625Z" fill="#B5CBDB"/>
</svg>
