<svg width="6" height="6" viewBox="0 0 6 6" fill="none" xmlns="http://www.w3.org/2000/svg">
<g clip-path="url(#clip0_503_235)">
<path d="M4.70138 3.36457V3.48609H4.45833V3.36457C4.45833 3.31037 4.44739 3.2592 4.43098 3.21047C4.59782 3.15896 4.74063 3.0493 4.83346 2.90142C4.92629 2.75354 4.96297 2.57726 4.93684 2.40462C4.91071 2.23198 4.8235 2.07446 4.69106 1.96067C4.55862 1.84689 4.38975 1.78441 4.21515 1.78458C4.02813 1.78448 3.84828 1.85657 3.71312 1.98583C3.67229 1.77858 3.55582 1.59393 3.38636 1.46782C3.21691 1.3417 3.00659 1.28314 2.79634 1.30354C2.5861 1.32393 2.39096 1.42181 2.24889 1.57814C2.10683 1.73447 2.02801 1.93805 2.02777 2.14929C2.0278 2.29629 2.06599 2.44077 2.13861 2.56859C2.21123 2.6964 2.31579 2.80318 2.44206 2.87846H2.39235C2.26343 2.87846 2.13979 2.92967 2.04862 3.02083C1.95746 3.112 1.90624 3.23564 1.90624 3.36457H1.78472L1.05555 2.87846H0.934021V4.57984H1.05555L1.78472 4.09373H1.90624V4.33679C1.90624 4.46571 1.95746 4.58936 2.04862 4.68052C2.13979 4.77168 2.26343 4.8229 2.39235 4.8229H3.97222C4.10114 4.8229 4.22478 4.77168 4.31595 4.68052C4.40711 4.58936 4.45833 4.46571 4.45833 4.33679V3.97221H4.70138V4.09373H5.06597V3.36457H4.70138Z" fill="#4F5862"/>
<path d="M3.48611 2.14933C3.48609 2.3105 3.42205 2.46506 3.30807 2.57902C3.25164 2.63544 3.18464 2.6802 3.11091 2.71073C3.03717 2.74126 2.95815 2.75697 2.87835 2.75696C2.79854 2.75696 2.71952 2.74123 2.64579 2.71068C2.57207 2.68014 2.50508 2.63537 2.44865 2.57893C2.3347 2.46495 2.27069 2.31038 2.27071 2.1492C2.27072 1.98803 2.33476 1.83347 2.44874 1.71951C2.56272 1.60556 2.71729 1.54155 2.87847 1.54156C3.03964 1.54158 3.1942 1.60562 3.30816 1.7196C3.42211 1.83358 3.48612 1.98815 3.48611 2.14933Z" fill="#798A95"/>
<path d="M2.87848 2.39236C3.01271 2.39236 3.12153 2.28354 3.12153 2.14931C3.12153 2.01507 3.01271 1.90625 2.87848 1.90625C2.74424 1.90625 2.63542 2.01507 2.63542 2.14931C2.63542 2.28354 2.74424 2.39236 2.87848 2.39236Z" fill="#D7E1E8"/>
<path d="M4.21516 2.99999C4.48363 2.99999 4.70127 2.78235 4.70127 2.51388C4.70127 2.24541 4.48363 2.02777 4.21516 2.02777C3.94669 2.02777 3.72905 2.24541 3.72905 2.51388C3.72905 2.78235 3.94669 2.99999 4.21516 2.99999Z" fill="#798A95"/>
<path d="M4.21516 2.75692C4.3494 2.75692 4.45822 2.6481 4.45822 2.51387C4.45822 2.37963 4.3494 2.27081 4.21516 2.27081C4.08093 2.27081 3.97211 2.37963 3.97211 2.51387C3.97211 2.6481 4.08093 2.75692 4.21516 2.75692Z" fill="#D7E1E8"/>
<path d="M2.87848 3.24304H4.09376V4.45832H2.87848V3.24304Z" fill="#9CADBA"/>
<path d="M3.12152 3.48608H3.85069V4.21525H3.12152V3.48608Z" fill="#4F5862"/>
<path d="M2.39224 4.45834C2.52648 4.45834 2.6353 4.34952 2.6353 4.21528C2.6353 4.08105 2.52648 3.97223 2.39224 3.97223C2.258 3.97223 2.14919 4.08105 2.14919 4.21528C2.14919 4.34952 2.258 4.45834 2.39224 4.45834Z" fill="#9CADBA"/>
</g>
<defs>
<clipPath id="clip0_503_235">
<rect width="4.375" height="4.375" fill="white" transform="translate(0.8125 0.8125)"/>
</clipPath>
</defs>
</svg>
