<svg width="54" height="54" viewBox="0 0 54 54" fill="none" xmlns="http://www.w3.org/2000/svg">
<path d="M50.4412 27L43.3946 31.375H41.5833V25.5417C41.5833 25.4134 41.5542 25.2952 41.5454 25.1684C46.5942 23.885 50.3333 19.3219 50.3333 13.875C50.3333 10.7807 49.1041 7.813 46.916 5.62494C44.728 3.43688 41.7603 2.20764 38.6659 2.20764C35.5715 2.20764 32.6039 3.43688 30.4158 5.62494C28.2278 7.813 26.9985 10.7807 26.9985 13.875C26.9985 16.0086 27.5994 17.9905 28.6012 19.7084H22.5083C22.5769 19.23 22.625 18.7459 22.625 18.25C22.625 15.5426 21.5495 12.9461 19.635 11.0317C17.7206 9.11722 15.1241 8.0417 12.4167 8.0417C9.70924 8.0417 7.11271 9.11722 5.19828 11.0317C3.28385 12.9461 2.20833 15.5426 2.20833 18.25C2.20954 20.1801 2.7583 22.0703 3.79086 23.701C4.82342 25.3316 6.29742 26.6359 8.04166 27.4623V43.0417C8.04166 44.5888 8.65624 46.0725 9.7502 47.1665C10.8442 48.2605 12.3279 48.875 13.875 48.875H35.75C37.2971 48.875 38.7808 48.2605 39.8748 47.1665C40.9687 46.0725 41.5833 44.5888 41.5833 43.0417V38.6667H43.3946L50.4412 43.0417H51.7917V27H50.4412ZM42.6435 6.54983C43.9476 7.25878 45.0386 8.30325 45.8036 9.57519C46.5687 10.8471 46.9801 12.3004 46.9952 13.7846L41.8458 12.9271C41.6887 12.3853 41.3961 11.8924 40.9956 11.495L42.6435 6.54983ZM41.331 15.7986L46.511 16.6619C46.0306 18.0053 45.2131 19.2029 44.1371 20.1398C43.061 21.0767 41.7624 21.7215 40.3656 22.0125C39.8258 21.3066 39.1314 20.7339 38.3356 20.3384L39.2471 17.1446C40.0815 16.9623 40.8217 16.4842 41.331 15.7986ZM38.6667 5.54066C39.0779 5.54066 39.4789 5.58004 39.8742 5.63837L38.2248 10.585C37.6356 10.6638 37.0989 10.8913 36.6483 11.2355L31.9875 8.90504C32.7608 7.86171 33.7677 7.01399 34.9276 6.42976C36.0874 5.84553 37.368 5.54104 38.6667 5.54066ZM30.3323 13.875C30.3323 13.054 30.4562 12.2621 30.6764 11.5125L35.3344 13.8415L35.3314 13.875C35.3314 14.8332 35.7879 15.6907 36.4558 16.2988L35.4817 19.7084H32.7531C31.2054 18.1613 30.3348 16.0634 30.3323 13.875ZM17.079 13.3136C17.7549 13.946 18.294 14.7104 18.6627 15.5595C19.0314 16.4086 19.222 17.3243 19.2227 18.25C19.2227 18.7517 19.16 19.2373 19.0579 19.7084H15.4792C15.6906 19.265 15.819 18.7736 15.819 18.25C15.8194 17.5792 15.6204 16.9234 15.2473 16.3659L17.079 13.3136ZM12.4167 11.444C13.1735 11.444 13.8896 11.5971 14.5692 11.8246L12.7375 14.8784C12.631 14.8682 12.526 14.8463 12.4167 14.8463C11.7458 14.8458 11.09 15.0448 10.5325 15.418L7.4802 13.5877C8.11263 12.9118 8.87704 12.3727 9.72614 12.004C10.5752 11.6353 11.491 11.4447 12.4167 11.444ZM5.61062 18.25C5.61062 17.4932 5.76374 16.7771 5.99124 16.0961L9.04645 17.9292C9.03624 18.0357 9.01437 18.1392 9.01437 18.25C9.01437 19.3438 9.53937 20.3063 10.3415 20.929C9.42342 21.6333 8.7364 22.5955 8.36833 23.6925C6.70437 22.4515 5.61062 20.4857 5.61062 18.25Z" fill="#6A7580"/>
<path d="M35.75 31.375C37.3608 31.375 38.6667 30.0691 38.6667 28.4583C38.6667 26.8475 37.3608 25.5416 35.75 25.5416C34.1392 25.5416 32.8333 26.8475 32.8333 28.4583C32.8333 30.0691 34.1392 31.375 35.75 31.375Z" fill="#B5CBDB"/>
<path d="M13.875 31.375C15.4858 31.375 16.7917 30.0691 16.7917 28.4583C16.7917 26.8475 15.4858 25.5416 13.875 25.5416C12.2642 25.5416 10.9583 26.8475 10.9583 28.4583C10.9583 30.0691 12.2642 31.375 13.875 31.375Z" fill="#B5CBDB"/>
<path d="M35.75 40.125C35.75 39.3514 35.4427 38.6096 34.8957 38.0626C34.3487 37.5156 33.6069 37.2083 32.8333 37.2083H16.7917C16.0181 37.2083 15.2763 37.5156 14.7293 38.0626C14.1823 38.6096 13.875 39.3514 13.875 40.125V48.875C13.875 49.6485 14.1823 50.3904 14.7293 50.9374C15.2763 51.4844 16.0181 51.7916 16.7917 51.7916H32.8333C33.6069 51.7916 34.3487 51.4844 34.8957 50.9374C35.4427 50.3904 35.75 49.6485 35.75 48.875V40.125Z" fill="#B5CBDB"/>
</svg>
