<svg width="18" height="18" viewBox="0 0 18 18" fill="none" xmlns="http://www.w3.org/2000/svg">
<path d="M16.3254 9L14.1233 10.3672H13.5573V8.54427C13.5573 8.50417 13.5482 8.46726 13.5455 8.42761C15.1232 8.02657 16.2917 6.60059 16.2917 4.89844C16.2917 3.93145 15.9075 3.00406 15.2238 2.32029C14.54 1.63652 13.6126 1.25238 12.6456 1.25238C11.6786 1.25238 10.7512 1.63652 10.0675 2.32029C9.3837 3.00406 8.99956 3.93145 8.99956 4.89844C8.99956 5.56517 9.18732 6.18451 9.50041 6.72136H7.59637C7.61779 6.57188 7.63283 6.42058 7.63283 6.26563C7.63283 5.41956 7.29673 4.60815 6.69847 4.00988C6.10021 3.41162 5.2888 3.07552 4.44273 3.07552C3.59666 3.07552 2.78524 3.41162 2.18698 4.00988C1.58872 4.60815 1.25262 5.41956 1.25262 6.26563C1.253 6.86879 1.42449 7.45946 1.74717 7.96905C2.06984 8.47863 2.53047 8.88622 3.07554 9.14447V14.013C3.07554 14.4965 3.2676 14.9602 3.60946 15.302C3.95132 15.6439 4.41499 15.8359 4.89846 15.8359H11.7344C12.2179 15.8359 12.6815 15.6439 13.0234 15.302C13.3653 14.9602 13.5573 14.4965 13.5573 14.013V12.6458H14.1233L16.3254 14.013H16.7474V9H16.3254ZM13.8886 2.60931C14.2961 2.83086 14.6371 3.15726 14.8762 3.55474C15.1152 3.95222 15.2438 4.40636 15.2485 4.87019L13.6393 4.60222C13.5903 4.43289 13.4988 4.27886 13.3737 4.15469L13.8886 2.60931ZM13.4785 5.49955L15.0972 5.76934C14.9471 6.18916 14.6916 6.56339 14.3554 6.85617C14.0191 7.14895 13.6133 7.35046 13.1768 7.44141C13.0081 7.22081 12.7911 7.04183 12.5424 6.91823L12.8272 5.92019C13.088 5.86321 13.3193 5.7138 13.4785 5.49955ZM12.6459 2.29395C12.7744 2.29395 12.8997 2.30625 13.0232 2.32448L12.5078 3.87032C12.3237 3.89493 12.1559 3.96602 12.0151 4.07357L10.5586 3.34532C10.8003 3.01928 11.1149 2.75436 11.4774 2.57179C11.8398 2.38922 12.24 2.29407 12.6459 2.29395ZM10.0414 4.89844C10.0414 4.64187 10.0801 4.3944 10.1489 4.16016L11.6045 4.88796L11.6036 4.89844C11.6036 5.19786 11.7462 5.46582 11.955 5.65586L11.6505 6.72136H10.7979C10.3142 6.23789 10.0421 5.58229 10.0414 4.89844ZM5.89969 4.72299C6.11094 4.92062 6.27939 5.1595 6.39462 5.42484C6.50985 5.69018 6.56941 5.97635 6.56962 6.26563C6.56962 6.4224 6.55002 6.57416 6.51812 6.72136H5.39976C5.46584 6.58282 5.50594 6.42924 5.50594 6.26563C5.50609 6.05599 5.4439 5.85104 5.3273 5.67683L5.89969 4.72299ZM4.44273 4.13874C4.67925 4.13874 4.90301 4.18659 5.11538 4.25769L4.54299 5.21198C4.50972 5.20879 4.47691 5.20196 4.44273 5.20196C4.23309 5.20182 4.02814 5.264 3.85393 5.3806L2.90009 4.80866C3.09772 4.59742 3.3366 4.42897 3.60194 4.31374C3.86728 4.19851 4.15345 4.13895 4.44273 4.13874ZM2.31584 6.26563C2.31584 6.02911 2.36369 5.80534 2.43479 5.59252L3.38954 6.16537C3.38635 6.19864 3.37951 6.23099 3.37951 6.26563C3.37951 6.60743 3.54358 6.90821 3.79423 7.1028C3.50734 7.32291 3.29265 7.6236 3.17762 7.96641C2.65764 7.57858 2.31584 6.96426 2.31584 6.26563Z" fill="#6A7580"/>
<path d="M11.7344 10.3672C12.2378 10.3672 12.6459 9.95912 12.6459 9.45574C12.6459 8.95235 12.2378 8.54428 11.7344 8.54428C11.231 8.54428 10.8229 8.95235 10.8229 9.45574C10.8229 9.95912 11.231 10.3672 11.7344 10.3672Z" fill="#B5CBDB"/>
<path d="M4.89846 10.3672C5.40184 10.3672 5.80992 9.95912 5.80992 9.45574C5.80992 8.95235 5.40184 8.54428 4.89846 8.54428C4.39507 8.54428 3.987 8.95235 3.987 9.45574C3.987 9.95912 4.39507 10.3672 4.89846 10.3672Z" fill="#B5CBDB"/>
<path d="M11.7344 13.1016C11.7344 12.8598 11.6383 12.628 11.4674 12.4571C11.2965 12.2861 11.0647 12.1901 10.8229 12.1901H5.8099C5.56816 12.1901 5.33633 12.2861 5.1654 12.4571C4.99447 12.628 4.89844 12.8598 4.89844 13.1016V15.8359C4.89844 16.0777 4.99447 16.3095 5.1654 16.4804C5.33633 16.6514 5.56816 16.7474 5.8099 16.7474H10.8229C11.0647 16.7474 11.2965 16.6514 11.4674 16.4804C11.6383 16.3095 11.7344 16.0777 11.7344 15.8359V13.1016Z" fill="#B5CBDB"/>
</svg>
