<svg width="6" height="6" viewBox="0 0 6 6" fill="none" xmlns="http://www.w3.org/2000/svg">
<g clip-path="url(#clip0_505_295)">
<path d="M4.95343 2.99999L4.36621 3.36458H4.21527V2.87846C4.21527 2.86777 4.21284 2.85793 4.21211 2.84735C4.63284 2.74041 4.94444 2.36015 4.94444 1.90624C4.94444 1.64838 4.842 1.40107 4.65966 1.21874C4.47732 1.0364 4.23002 0.93396 3.97215 0.93396C3.71429 0.93396 3.46699 1.0364 3.28465 1.21874C3.10231 1.40107 2.99987 1.64838 2.99987 1.90624C2.99987 2.08404 3.04994 2.24919 3.13343 2.39235H2.62569C2.6314 2.35249 2.63541 2.31215 2.63541 2.27083C2.63541 2.04521 2.54578 1.82883 2.38625 1.66929C2.22671 1.50976 2.01033 1.42013 1.78472 1.42013C1.5591 1.42013 1.34272 1.50976 1.18318 1.66929C1.02365 1.82883 0.934021 2.04521 0.934021 2.27083C0.934122 2.43167 0.979852 2.58918 1.0659 2.72507C1.15195 2.86096 1.27478 2.96965 1.42013 3.03852V4.3368C1.42013 4.46572 1.47135 4.58937 1.56251 4.68053C1.65367 4.77169 1.77732 4.82291 1.90624 4.82291H3.72916C3.85808 4.82291 3.98173 4.77169 4.07289 4.68053C4.16406 4.58937 4.21527 4.46572 4.21527 4.3368V3.97221H4.36621L4.95343 4.3368H5.06597V2.99999H4.95343ZM4.30362 1.29581C4.41229 1.35489 4.50321 1.44193 4.56696 1.54792C4.63072 1.65392 4.665 1.77502 4.66626 1.89871L4.23715 1.82725C4.22406 1.78209 4.19967 1.74102 4.1663 1.70791L4.30362 1.29581ZM4.19425 2.06654L4.62591 2.13848C4.58587 2.25044 4.51775 2.35023 4.42808 2.4283C4.33841 2.50638 4.23019 2.56012 4.1138 2.58437C4.06881 2.52554 4.01094 2.47781 3.94463 2.44485L4.02058 2.17871C4.09012 2.16352 4.1518 2.12367 4.19425 2.06654ZM3.97222 1.21171C4.00649 1.21171 4.03991 1.21499 4.07284 1.21985L3.93539 1.63208C3.8863 1.63864 3.84157 1.6576 3.80402 1.68628L3.41562 1.49208C3.48006 1.40513 3.56397 1.33449 3.66063 1.2858C3.75728 1.23712 3.86399 1.21174 3.97222 1.21171ZM3.27768 1.90624C3.27768 1.83782 3.28801 1.77183 3.30636 1.70937L3.69452 1.90345L3.69428 1.90624C3.69428 1.98609 3.73232 2.05754 3.78798 2.10822L3.7068 2.39235H3.47942C3.35045 2.26343 3.27789 2.0886 3.27768 1.90624ZM2.17324 1.85945C2.22957 1.91216 2.27449 1.97586 2.30522 2.04662C2.33595 2.11737 2.35183 2.19368 2.35189 2.27083C2.35189 2.31263 2.34666 2.3531 2.33815 2.39235H2.03992C2.05755 2.35541 2.06824 2.31445 2.06824 2.27083C2.06828 2.21492 2.0517 2.16027 2.0206 2.11381L2.17324 1.85945ZM1.78472 1.70366C1.84779 1.70366 1.90746 1.71642 1.96409 1.73537L1.81145 1.98985C1.80258 1.989 1.79383 1.98718 1.78472 1.98718C1.72881 1.98714 1.67416 2.00372 1.6277 2.03482L1.37334 1.8823C1.42605 1.82597 1.48975 1.78105 1.56051 1.75032C1.63126 1.71959 1.70757 1.70371 1.78472 1.70366ZM1.21755 2.27083C1.21755 2.20775 1.23031 2.14808 1.24926 2.09133L1.50386 2.24409C1.50301 2.25296 1.50119 2.26159 1.50119 2.27083C1.50119 2.36197 1.54494 2.44218 1.61178 2.49407C1.53528 2.55277 1.47803 2.63295 1.44735 2.72437C1.30869 2.62095 1.21755 2.45713 1.21755 2.27083Z" fill="#6A7580"/>
<path d="M3.72917 3.36459C3.86341 3.36459 3.97223 3.25577 3.97223 3.12153C3.97223 2.9873 3.86341 2.87848 3.72917 2.87848C3.59493 2.87848 3.48611 2.9873 3.48611 3.12153C3.48611 3.25577 3.59493 3.36459 3.72917 3.36459Z" fill="#B5CBDB"/>
<path d="M1.90625 3.36459C2.04048 3.36459 2.1493 3.25577 2.1493 3.12153C2.1493 2.9873 2.04048 2.87848 1.90625 2.87848C1.77201 2.87848 1.66319 2.9873 1.66319 3.12153C1.66319 3.25577 1.77201 3.36459 1.90625 3.36459Z" fill="#B5CBDB"/>
<path d="M3.72917 4.09376C3.72917 4.0293 3.70356 3.96748 3.65798 3.9219C3.6124 3.87632 3.55057 3.85071 3.48611 3.85071H2.14931C2.08484 3.85071 2.02302 3.87632 1.97744 3.9219C1.93186 3.96748 1.90625 4.0293 1.90625 4.09376V4.82293C1.90625 4.88739 1.93186 4.94921 1.97744 4.9948C2.02302 5.04038 2.08484 5.06599 2.14931 5.06599H3.48611C3.55057 5.06599 3.6124 5.04038 3.65798 4.9948C3.70356 4.94921 3.72917 4.88739 3.72917 4.82293V4.09376Z" fill="#B5CBDB"/>
</g>
<defs>
<clipPath id="clip0_505_295">
<rect width="4.375" height="4.375" fill="white" transform="translate(0.8125 0.8125)"/>
</clipPath>
</defs>
</svg>
