<svg width="10" height="10" viewBox="0 0 10 10" fill="none" xmlns="http://www.w3.org/2000/svg">
<g clip-path="url(#clip0_505_302)">
<path d="M8.90688 4.99999L7.73243 5.72915H7.43056V4.75693C7.43056 4.73554 7.4257 4.71585 7.42424 4.69471C8.2657 4.48082 8.88889 3.7203 8.88889 2.81249C8.88889 2.29675 8.68402 1.80215 8.31934 1.43747C7.95466 1.07279 7.46006 0.86792 6.94432 0.86792C6.42859 0.86792 5.93399 1.07279 5.56931 1.43747C5.20463 1.80215 4.99976 2.29675 4.99976 2.81249C4.99976 3.16808 5.0999 3.49839 5.26688 3.78471H4.25139C4.26281 3.70499 4.27083 3.62429 4.27083 3.54165C4.27083 3.09042 4.09158 2.65766 3.77251 2.33859C3.45344 2.01952 3.02068 1.84026 2.56945 1.84026C2.11821 1.84026 1.68545 2.01952 1.36638 2.33859C1.04731 2.65766 0.868057 3.09042 0.868057 3.54165C0.868259 3.86334 0.959719 4.17836 1.13181 4.45014C1.30391 4.72192 1.54957 4.9393 1.84028 5.07703V7.6736C1.84028 7.93145 1.94271 8.17873 2.12504 8.36106C2.30736 8.54339 2.55465 8.64582 2.8125 8.64582H6.45833C6.71618 8.64582 6.96347 8.54339 7.1458 8.36106C7.32813 8.17873 7.43056 7.93145 7.43056 7.6736V6.94443H7.73243L8.90688 7.6736H9.13195V4.99999H8.90688ZM7.60726 1.59162C7.8246 1.70978 8.00643 1.88385 8.13394 2.09585C8.26145 2.30784 8.33002 2.55004 8.33254 2.79742L7.47431 2.6545C7.44813 2.56419 7.39936 2.48204 7.33261 2.41582L7.60726 1.59162ZM7.38851 3.13308L8.25184 3.27696C8.17176 3.50087 8.03552 3.70046 7.85618 3.85661C7.67684 4.01276 7.4604 4.12023 7.22761 4.16874C7.13764 4.05108 7.0219 3.95563 6.88927 3.88971L7.04118 3.35742C7.18025 3.32703 7.30362 3.24734 7.38851 3.13308ZM6.94445 1.42342C7.01299 1.42342 7.07983 1.42999 7.1457 1.43971L6.8708 2.26415C6.77261 2.27728 6.68316 2.31519 6.60806 2.37256L5.83125 1.98415C5.96014 1.81027 6.12796 1.66898 6.32127 1.57161C6.51457 1.47423 6.728 1.42349 6.94445 1.42342ZM5.55538 2.81249C5.55538 2.67565 5.57604 2.54367 5.61274 2.41874L6.38906 2.8069L6.38858 2.81249C6.38858 2.97217 6.46465 3.11509 6.57597 3.21644L6.41361 3.78471H5.95886C5.70091 3.52686 5.5558 3.17721 5.55538 2.81249ZM3.34649 2.71891C3.45916 2.82431 3.549 2.95172 3.61045 3.09323C3.67191 3.23475 3.70368 3.38737 3.70379 3.54165C3.70379 3.62526 3.69333 3.7062 3.67632 3.78471H3.07986C3.11511 3.71082 3.13649 3.62891 3.13649 3.54165C3.13657 3.42985 3.10341 3.32054 3.04122 3.22762L3.34649 2.71891ZM2.56945 2.40731C2.69559 2.40731 2.81493 2.43283 2.9282 2.47075L2.62292 2.97971C2.60518 2.97801 2.58768 2.97436 2.56945 2.97436C2.45764 2.97429 2.34833 3.00745 2.25542 3.06964L1.7467 2.7646C1.85211 2.65194 1.97951 2.5621 2.12103 2.50064C2.26254 2.43919 2.41516 2.40742 2.56945 2.40731ZM1.43511 3.54165C1.43511 3.41551 1.46063 3.29617 1.49854 3.18266L2.00774 3.48818C2.00604 3.50592 2.0024 3.52318 2.0024 3.54165C2.0024 3.72394 2.0899 3.88436 2.22358 3.98815C2.07057 4.10553 1.95607 4.2659 1.89472 4.44874C1.6174 4.2419 1.43511 3.91426 1.43511 3.54165Z" fill="#6A7580"/>
<path d="M6.45833 5.72918C6.7268 5.72918 6.94444 5.51154 6.94444 5.24307C6.94444 4.9746 6.7268 4.75696 6.45833 4.75696C6.18986 4.75696 5.97222 4.9746 5.97222 5.24307C5.97222 5.51154 6.18986 5.72918 6.45833 5.72918Z" fill="#B5CBDB"/>
<path d="M2.8125 5.72918C3.08097 5.72918 3.29861 5.51154 3.29861 5.24307C3.29861 4.9746 3.08097 4.75696 2.8125 4.75696C2.54402 4.75696 2.32639 4.9746 2.32639 5.24307C2.32639 5.51154 2.54402 5.72918 2.8125 5.72918Z" fill="#B5CBDB"/>
<path d="M6.45833 7.18753C6.45833 7.0586 6.40712 6.93496 6.31595 6.84379C6.22479 6.75263 6.10115 6.70142 5.97222 6.70142H3.29861C3.16969 6.70142 3.04604 6.75263 2.95488 6.84379C2.86372 6.93496 2.8125 7.0586 2.8125 7.18753V8.64586C2.8125 8.77478 2.86372 8.89843 2.95488 8.98959C3.04604 9.08076 3.16969 9.13197 3.29861 9.13197H5.97222C6.10115 9.13197 6.22479 9.08076 6.31595 8.98959C6.40712 8.89843 6.45833 8.77478 6.45833 8.64586V7.18753Z" fill="#B5CBDB"/>
</g>
<defs>
<clipPath id="clip0_505_302">
<rect width="8.75" height="8.75" fill="white" transform="translate(0.625 0.625)"/>
</clipPath>
</defs>
</svg>
