<svg width="36" height="36" viewBox="0 0 36 36" fill="none" xmlns="http://www.w3.org/2000/svg">
<path d="M33.6275 18L28.9297 20.9167H27.7222V17.0278C27.7222 16.9422 27.7028 16.8635 27.6969 16.7789C31.0628 15.9233 33.5556 12.8813 33.5556 9.25C33.5556 7.18708 32.7361 5.20865 31.2774 3.74994C29.8186 2.29123 27.8402 1.47174 25.7773 1.47174C23.7144 1.47174 21.7359 2.29123 20.2772 3.74994C18.8185 5.20865 17.999 7.18708 17.999 9.25C17.999 10.6724 18.3996 11.9936 19.0675 13.1389H15.0056C15.0512 12.82 15.0833 12.4972 15.0833 12.1667C15.0833 10.3617 14.3663 8.63071 13.09 7.35442C11.8137 6.07813 10.0827 5.36112 8.27778 5.36112C6.47283 5.36112 4.74181 6.07813 3.46552 7.35442C2.18923 8.63071 1.47222 10.3617 1.47222 12.1667C1.47303 13.4534 1.83887 14.7135 2.52724 15.8006C3.21562 16.8877 4.19829 17.7573 5.36111 18.3082V28.6944C5.36111 29.7258 5.77083 30.715 6.50014 31.4443C7.22945 32.1736 8.2186 32.5833 9.25 32.5833H23.8333C24.8647 32.5833 25.8539 32.1736 26.5832 31.4443C27.3125 30.715 27.7222 29.7258 27.7222 28.6944V25.7778H28.9297L33.6275 28.6944H34.5278V18H33.6275ZM28.429 4.36653C29.2984 4.83917 30.0257 5.53548 30.5358 6.38344C31.0458 7.23141 31.3201 8.20024 31.3301 9.18973L27.8972 8.61806C27.7925 8.25682 27.5974 7.92824 27.3304 7.66334L28.429 4.36653ZM27.554 10.5324L31.0074 11.1079C30.687 12.0035 30.1421 12.8019 29.4247 13.4265C28.7073 14.0511 27.8416 14.481 26.9104 14.675C26.5506 14.2044 26.0876 13.8226 25.5571 13.5589L26.1647 11.4297C26.721 11.3082 27.2145 10.9894 27.554 10.5324ZM25.7778 3.69375C26.0519 3.69375 26.3193 3.72 26.5828 3.75889L25.4832 7.05667C25.0904 7.10917 24.7326 7.26084 24.4322 7.49028L21.325 5.93667C21.8406 5.24112 22.5118 4.67597 23.2851 4.28649C24.0583 3.897 24.912 3.694 25.7778 3.69375ZM20.2215 9.25C20.2215 8.70264 20.3042 8.17473 20.451 7.675L23.5562 9.22764L23.5543 9.25C23.5543 9.88875 23.8586 10.4604 24.3039 10.8658L23.6544 13.1389H21.8354C20.8036 12.1075 20.2232 10.7089 20.2215 9.25ZM11.386 8.8757C11.8366 9.29732 12.196 9.80692 12.4418 10.373C12.6876 10.9391 12.8147 11.5495 12.8151 12.1667C12.8151 12.5011 12.7733 12.8249 12.7053 13.1389H10.3194C10.4604 12.8433 10.546 12.5157 10.546 12.1667C10.5463 11.7194 10.4136 11.2822 10.1649 10.9106L11.386 8.8757ZM8.27778 7.62931C8.78236 7.62931 9.25972 7.73139 9.71278 7.88306L8.49167 9.91889C8.42069 9.91209 8.35069 9.8975 8.27778 9.8975C7.83055 9.8972 7.39333 10.0299 7.02167 10.2786L4.9868 9.05848C5.40843 8.60782 5.91803 8.24846 6.48409 8.00264C7.05016 7.75681 7.66064 7.62975 8.27778 7.62931ZM3.74042 12.1667C3.74042 11.6621 3.8425 11.1847 3.99417 10.7307L6.03097 11.9528C6.02417 12.0238 6.00958 12.0928 6.00958 12.1667C6.00958 12.8958 6.35958 13.5375 6.8943 13.9526C6.28228 14.4222 5.82427 15.0637 5.57889 15.795C4.46958 14.9676 3.74042 13.6571 3.74042 12.1667Z" fill="#6A7580"/>
<path d="M23.8333 20.9167C24.9072 20.9167 25.7778 20.0461 25.7778 18.9722C25.7778 17.8983 24.9072 17.0278 23.8333 17.0278C22.7594 17.0278 21.8889 17.8983 21.8889 18.9722C21.8889 20.0461 22.7594 20.9167 23.8333 20.9167Z" fill="#B5CBDB"/>
<path d="M9.25 20.9167C10.3239 20.9167 11.1944 20.0461 11.1944 18.9722C11.1944 17.8983 10.3239 17.0278 9.25 17.0278C8.17611 17.0278 7.30556 17.8983 7.30556 18.9722C7.30556 20.0461 8.17611 20.9167 9.25 20.9167Z" fill="#B5CBDB"/>
<path d="M23.8333 26.75C23.8333 26.2343 23.6285 25.7397 23.2638 25.3751C22.8992 25.0104 22.4046 24.8055 21.8889 24.8055H11.1944C10.6787 24.8055 10.1842 25.0104 9.81951 25.3751C9.45486 25.7397 9.25 26.2343 9.25 26.75V32.5833C9.25 33.099 9.45486 33.5936 9.81951 33.9583C10.1842 34.3229 10.6787 34.5278 11.1944 34.5278H21.8889C22.4046 34.5278 22.8992 34.3229 23.2638 33.9583C23.6285 33.5936 23.8333 33.099 23.8333 32.5833V26.75Z" fill="#B5CBDB"/>
</svg>
