<svg width="24" height="24" viewBox="0 0 24 24" fill="none" xmlns="http://www.w3.org/2000/svg">
<g clip-path="url(#clip0_1702_36568)">
<path d="M22.7163 11.9997L19.495 13.9997H18.667V11.333C18.667 11.2743 18.6537 11.2203 18.6497 11.1623C20.9577 10.5757 22.667 8.48968 22.667 5.99968C22.667 4.58511 22.1051 3.22847 21.1048 2.22821C20.1045 1.22795 18.7479 0.666016 17.3333 0.666016C15.9187 0.666016 14.5621 1.22795 13.5619 2.22821C12.5616 3.22847 11.9997 4.58511 11.9997 5.99968C11.9997 6.97502 12.2743 7.88102 12.7323 8.66635H9.94699C9.97833 8.44768 10.0003 8.22635 10.0003 7.99968C10.0003 6.762 9.50866 5.57502 8.63349 4.69985C7.75832 3.82468 6.57134 3.33302 5.33366 3.33302C4.09598 3.33302 2.909 3.82468 2.03383 4.69985C1.15866 5.57502 0.666992 6.762 0.666992 7.99968C0.667546 8.88201 0.918406 9.74609 1.39044 10.4915C1.86246 11.237 2.53629 11.8332 3.33366 12.211V19.333C3.33366 20.0403 3.61461 20.7185 4.11471 21.2186C4.6148 21.7187 5.29308 21.9997 6.00033 21.9997H16.0003C16.7076 21.9997 17.3858 21.7187 17.8859 21.2186C18.386 20.7185 18.667 20.0403 18.667 19.333V17.333H19.495L22.7163 19.333H23.3337V11.9997H22.7163ZM19.1517 2.65102C19.7478 2.97511 20.2465 3.45258 20.5963 4.03404C20.946 4.6155 21.1341 5.27984 21.141 5.95835L18.787 5.56635C18.7152 5.31864 18.5814 5.09333 18.3983 4.91168L19.1517 2.65102ZM18.5517 6.87902L20.9197 7.27368C20.7 7.88782 20.3263 8.43527 19.8344 8.86356C19.3425 9.29185 18.7488 9.58664 18.1103 9.71968C17.8636 9.39698 17.5461 9.13515 17.1823 8.95435L17.599 7.49435C17.9804 7.41101 18.3188 7.19244 18.5517 6.87902ZM17.3337 2.18968C17.5217 2.18968 17.705 2.20768 17.8857 2.23435L17.1317 4.49568C16.8623 4.53168 16.617 4.63568 16.411 4.79302L14.2803 3.72768C14.6338 3.25073 15.0942 2.8632 15.6244 2.59613C16.1546 2.32905 16.74 2.18985 17.3337 2.18968ZM13.5237 5.99968C13.5237 5.62435 13.5803 5.26235 13.681 4.91968L15.8103 5.98435L15.809 5.99968C15.809 6.43768 16.0177 6.82968 16.323 7.10768L15.8777 8.66635H14.6303C13.9228 7.95911 13.5248 7.00006 13.5237 5.99968ZM7.46499 5.74302C7.77401 6.03213 8.02043 6.38157 8.189 6.76973C8.35756 7.15789 8.44469 7.5765 8.44499 7.99968C8.44499 8.22901 8.41632 8.45101 8.36966 8.66635H6.73366C6.83033 8.46368 6.88899 8.23901 6.88899 7.99968C6.8892 7.69301 6.79824 7.3932 6.62766 7.13835L7.46499 5.74302ZM5.33366 4.88835C5.67966 4.88835 6.00699 4.95835 6.31766 5.06235L5.48033 6.45835C5.43166 6.45368 5.38366 6.44368 5.33366 6.44368C5.02699 6.44347 4.72718 6.53444 4.47233 6.70501L3.07699 5.86835C3.3661 5.55933 3.71555 5.31291 4.1037 5.14435C4.49186 4.97578 4.91048 4.88865 5.33366 4.88835ZM2.22233 7.99968C2.22233 7.65368 2.29233 7.32635 2.39633 7.01501L3.79299 7.85301C3.78833 7.90168 3.77833 7.94902 3.77833 7.99968C3.77833 8.49968 4.01833 8.93968 4.38499 9.22435C3.96532 9.54633 3.65126 9.9862 3.48299 10.4877C2.72233 9.92035 2.22233 9.02168 2.22233 7.99968Z" fill="#6A7580"/>
<path d="M16.0003 14.0007C16.7367 14.0007 17.3337 13.4037 17.3337 12.6673C17.3337 11.9309 16.7367 11.334 16.0003 11.334C15.2639 11.334 14.667 11.9309 14.667 12.6673C14.667 13.4037 15.2639 14.0007 16.0003 14.0007Z" fill="#B5CBDB"/>
<path d="M6.00033 14.0007C6.73671 14.0007 7.33366 13.4037 7.33366 12.6673C7.33366 11.9309 6.73671 11.334 6.00033 11.334C5.26395 11.334 4.66699 11.9309 4.66699 12.6673C4.66699 13.4037 5.26395 14.0007 6.00033 14.0007Z" fill="#B5CBDB"/>
<path d="M16 17.9993C16 17.6457 15.8595 17.3066 15.6095 17.0565C15.3594 16.8065 15.0203 16.666 14.6667 16.666H7.33333C6.97971 16.666 6.64057 16.8065 6.39052 17.0565C6.14048 17.3066 6 17.6457 6 17.9993V21.9993C6 22.353 6.14048 22.6921 6.39052 22.9422C6.64057 23.1922 6.97971 23.3327 7.33333 23.3327H14.6667C15.0203 23.3327 15.3594 23.1922 15.6095 22.9422C15.8595 22.6921 16 22.353 16 21.9993V17.9993Z" fill="#B5CBDB"/>
</g>
<defs>
<clipPath id="clip0_1702_36568">
<rect width="24" height="24" fill="white"/>
</clipPath>
</defs>
</svg>
