<svg width="155" height="155" viewBox="0 0 155 155" fill="none" xmlns="http://www.w3.org/2000/svg">
<path fill-rule="evenodd" clip-rule="evenodd" d="M75.6502 0.060081C89.3577 0.777427 102.382 8.22559 112.164 18.2636C121.031 27.3627 120.394 42.3254 127.331 53.0939C134.978 64.966 152.179 70.1348 154.638 84.2041C157.061 98.0652 146.797 110.783 139.485 122.631C132.434 134.056 124.81 145.911 113.005 151.664C101.513 157.264 88.3269 154.231 75.6502 153.741C63.4182 153.267 51.3293 153.299 39.8629 148.833C26.9917 143.82 12.7281 138.617 5.5156 126.423C-1.7254 114.182 -0.466273 98.4189 1.63456 84.2041C3.55515 71.2089 11.0955 60.5152 16.9754 48.8834C23.0944 36.7786 26.6999 22.863 36.9573 14.3278C47.8354 5.27618 61.7501 -0.667342 75.6502 0.060081Z" fill="url(#paint0_linear_513_37828)" fill-opacity="0.6"/>
<path d="M101 108L77.5 91.3333L54 108V54.6667C54 52.8986 54.7074 51.2029 55.9666 49.9526C57.2257 48.7024 58.9335 48 60.7143 48H94.2857C96.0665 48 97.7743 48.7024 99.0334 49.9526C100.293 51.2029 101 52.8986 101 54.6667V81.3333V108Z" stroke="url(#paint1_linear_513_37828)" stroke-width="5" stroke-linecap="round" stroke-linejoin="round"/>
<defs>
<linearGradient id="paint0_linear_513_37828" x1="11.5372" y1="123.9" x2="155" y2="88.7864" gradientUnits="userSpaceOnUse">
<stop stop-color="#269EE1" stop-opacity="0.3"/>
<stop offset="1" stop-color="#EF233C" stop-opacity="0.3"/>
</linearGradient>
<linearGradient id="paint1_linear_513_37828" x1="54" y1="48" x2="101" y2="108" gradientUnits="userSpaceOnUse">
<stop stop-color="#269EE1"/>
<stop offset="1" stop-color="#EF233C"/>
</linearGradient>
</defs>
</svg>
