<svg width="156" height="155" viewBox="0 0 156 155" fill="none" xmlns="http://www.w3.org/2000/svg">
<path fill-rule="evenodd" clip-rule="evenodd" d="M76.6502 0.060081C90.3577 0.777427 103.382 8.22559 113.164 18.2636C122.031 27.3627 121.394 42.3254 128.331 53.0939C135.978 64.966 153.179 70.1348 155.638 84.2041C158.061 98.0652 147.797 110.783 140.485 122.631C133.434 134.056 125.81 145.911 114.005 151.664C102.513 157.264 89.3269 154.231 76.6502 153.741C64.4182 153.267 52.3293 153.299 40.8629 148.833C27.9917 143.82 13.7281 138.617 6.5156 126.423C-0.725402 114.182 0.533727 98.4189 2.63456 84.2041C4.55515 71.2089 12.0955 60.5152 17.9754 48.8834C24.0944 36.7786 27.6999 22.863 37.9573 14.3278C48.8354 5.27618 62.7501 -0.667342 76.6502 0.060081Z" fill="url(#paint0_linear_513_37831)" fill-opacity="0.6"/>
<path d="M106.945 47.4479C105.15 45.497 103.039 43.9678 100.735 42.9477C98.4299 41.9276 95.9757 41.4365 93.5123 41.5025C91.0489 41.5686 88.6246 42.1904 86.3778 43.3326C84.131 44.4747 82.1058 46.1147 80.4178 48.159L76.9147 52.3996L73.1895 48.3527C69.5637 44.414 64.732 42.2761 59.7573 42.4095C54.7826 42.5428 50.0723 44.9364 46.6628 49.0638C43.2532 53.1912 41.4236 58.7141 41.5765 64.4177C41.7294 70.1214 43.8522 75.5384 47.478 79.4772L51.2033 83.524L78.5452 113.226L104.257 82.1019L107.76 77.8613C109.449 75.818 110.767 73.4103 111.64 70.7758C112.513 68.1413 112.924 65.3316 112.848 62.5073C112.772 59.683 112.212 56.8993 111.199 54.3154C110.186 51.7314 108.74 49.3979 106.945 47.4479V47.4479Z" stroke="url(#paint1_linear_513_37831)" stroke-width="5" stroke-linecap="round" stroke-linejoin="round"/>
<defs>
<linearGradient id="paint0_linear_513_37831" x1="12.5372" y1="123.9" x2="156" y2="88.7864" gradientUnits="userSpaceOnUse">
<stop stop-color="#269EE1" stop-opacity="0.3"/>
<stop offset="1" stop-color="#EF233C" stop-opacity="0.3"/>
</linearGradient>
<linearGradient id="paint1_linear_513_37831" x1="41" y1="41" x2="96" y2="114" gradientUnits="userSpaceOnUse">
<stop stop-color="#269EE1"/>
<stop offset="1" stop-color="#EF233C"/>
</linearGradient>
</defs>
</svg>
