<svg width="17" height="22" viewBox="0 0 17 22" fill="none" xmlns="http://www.w3.org/2000/svg">
<path d="M8.5 16.7619C9.06359 16.7619 9.60409 16.5412 10.0026 16.1482C10.4011 15.7553 10.625 15.2224 10.625 14.6667C10.625 13.5038 9.66875 12.5714 8.5 12.5714C7.93641 12.5714 7.39591 12.7922 6.9974 13.1851C6.59888 13.578 6.375 14.111 6.375 14.6667C6.375 15.2224 6.59888 15.7553 6.9974 16.1482C7.39591 16.5412 7.93641 16.7619 8.5 16.7619ZM14.875 7.33333C15.4386 7.33333 15.9791 7.55408 16.3776 7.94702C16.7761 8.33995 17 8.87288 17 9.42857V19.9048C17 20.4605 16.7761 20.9934 16.3776 21.3863C15.9791 21.7793 15.4386 22 14.875 22H2.125C1.56141 22 1.02091 21.7793 0.622398 21.3863C0.223883 20.9934 0 20.4605 0 19.9048V9.42857C0 8.26571 0.95625 7.33333 2.125 7.33333H3.1875V5.2381C3.1875 3.84887 3.74721 2.51654 4.7435 1.5342C5.73978 0.551869 7.09104 0 8.5 0C9.19765 0 9.88846 0.135487 10.533 0.398726C11.1775 0.661965 11.7632 1.0478 12.2565 1.5342C12.7498 2.0206 13.1411 2.59805 13.4081 3.23356C13.6751 3.86908 13.8125 4.55022 13.8125 5.2381V7.33333H14.875ZM8.5 2.09524C7.65462 2.09524 6.84387 2.42636 6.2461 3.01576C5.64832 3.60516 5.3125 4.40456 5.3125 5.2381V7.33333H11.6875V5.2381C11.6875 4.40456 11.3517 3.60516 10.7539 3.01576C10.1561 2.42636 9.34538 2.09524 8.5 2.09524Z" fill="#2B2D42"/>
</svg>
