<svg width="24" height="25" viewBox="0 0 24 25" fill="none" xmlns="http://www.w3.org/2000/svg">
<path fill-rule="evenodd" clip-rule="evenodd" d="M1.5 0.5C0.671573 0.5 0 1.23263 0 2.13637C0 3.04011 0.671573 3.77273 1.5 3.77273H4.10318L4.79504 7.32815C4.80134 7.3676 4.80894 7.40656 4.81778 7.44498L6.40858 15.6199L6.40891 15.6216C6.57362 16.4725 7.01982 17.2155 7.64489 17.7331C8.26452 18.2461 9.02594 18.5112 9.79714 18.4997H19.0519C19.8231 18.5112 20.5846 18.2461 21.2042 17.7331C21.8297 17.2152 22.2761 16.4715 22.4405 15.6199L23.9702 7.36975C24.0594 6.88863 23.9459 6.38923 23.661 6.00928C23.3761 5.62934 22.95 5.40898 22.5 5.40898H7.48844L6.78548 1.79656C6.63838 1.04062 6.02656 0.5 5.31818 0.5H1.5ZM9.34414 14.9453L8.12529 8.68171H20.6662L19.5043 14.9486C19.4935 15.0006 19.4615 15.0674 19.3905 15.1262C19.3162 15.1877 19.2102 15.2296 19.0907 15.2272L19.0636 15.2269H9.78545L9.75835 15.2272C9.63887 15.2296 9.53287 15.1877 9.4586 15.1262C9.38606 15.0661 9.35427 14.9977 9.34414 14.9453Z" fill="white"/>
<path fill-rule="evenodd" clip-rule="evenodd" d="M6.49999 21.7727C6.49999 20.2665 7.61927 19.0454 8.99999 19.0454C10.3807 19.0454 11.5 20.2665 11.5 21.7727C11.5 23.279 10.3807 24.5 8.99999 24.5C7.61927 24.5 6.49999 23.279 6.49999 21.7727ZM8.99999 22.3182C9.27613 22.3182 9.49999 22.074 9.49999 21.7727C9.49999 21.4715 9.27613 21.2273 8.99999 21.2273C8.72384 21.2273 8.49999 21.4715 8.49999 21.7727C8.49999 22.074 8.72384 22.3182 8.99999 22.3182Z" fill="white"/>
<path fill-rule="evenodd" clip-rule="evenodd" d="M16.5 21.7727C16.5 20.2665 17.6193 19.0454 19 19.0454C20.3807 19.0454 21.5 20.2665 21.5 21.7727C21.5 23.279 20.3807 24.5 19 24.5C17.6193 24.5 16.5 23.279 16.5 21.7727ZM19 22.3182C19.2761 22.3182 19.5 22.074 19.5 21.7727C19.5 21.4715 19.2761 21.2273 19 21.2273C18.7238 21.2273 18.5 21.4715 18.5 21.7727C18.5 22.074 18.7238 22.3182 19 22.3182Z" fill="white"/>
</svg>
